<?xml version="1.0" standalone="no"?>
<!DOCTYPE svg PUBLIC "-//W3C//DTD SVG 20010904//EN"
 "http://www.w3.org/TR/2001/REC-SVG-20010904/DTD/svg10.dtd">
<svg version="1.0" xmlns="http://www.w3.org/2000/svg"
 width="500.000000pt" height="500.000000pt" viewBox="0 0 500.000000 500.000000"
 preserveAspectRatio="xMidYMid meet">

<g transform="translate(0.000000,500.000000) scale(0.100000,-0.100000)"
fill="#000000" stroke="none">
<path d="M2405 4003 c-304 -24 -582 -129 -820 -309 -78 -59 -225 -204 -280
-277 -127 -167 -222 -370 -270 -577 -10 -41 -19 -81 -21 -87 -3 -13 -23 -12
-114 8 -43 9 -47 13 -63 59 -45 125 -210 136 -263 18 -24 -53 -15 -131 20
-185 51 -77 198 -156 313 -170 29 -3 53 -7 53 -9 0 -2 -10 -39 -22 -81 -31
-111 -31 -275 0 -354 29 -74 87 -139 155 -174 41 -22 60 -39 78 -74 258 -486
773 -794 1329 -794 401 0 769 150 1054 431 179 176 298 369 379 612 25 74 57
212 57 247 0 11 16 26 41 38 23 10 67 48 99 82 31 35 63 63 70 63 27 0 137 68
185 115 90 88 107 179 45 242 -49 50 -112 54 -173 11 l-27 -19 -26 31 c-49 57
-123 77 -216 57 -34 -7 -38 -6 -38 13 0 12 -11 45 -24 73 -12 29 -38 87 -56
130 -65 154 -178 313 -322 454 -249 245 -564 389 -923 423 -107 10 -136 10
-220 3z m251 -34 c509 -49 974 -382 1188 -851 25 -57 31 -78 21 -78 -8 0 -32
38 -54 84 -163 350 -499 643 -867 759 -165 52 -235 62 -444 62 -270 0 -412
-32 -645 -145 -152 -74 -263 -155 -390 -284 -193 -195 -326 -441 -385 -708 -8
-35 -18 -58 -26 -58 -16 0 -12 28 23 150 180 630 745 1066 1399 1079 39 0 120
-4 180 -10z m-31 -594 c193 -18 418 -142 554 -307 56 -67 141 -210 141 -237 0
-30 -29 -5 -54 47 -52 106 -152 228 -248 302 -62 47 -169 102 -258 132 -92 31
-101 32 -260 32 -159 0 -168 -1 -260 -32 -89 -30 -196 -85 -258 -132 -63 -49
-148 -140 -190 -204 -37 -57 -46 -66 -54 -52 -11 20 1 41 79 138 142 174 367
297 585 317 82 8 104 7 223 -4z m108 -69 c104 -31 170 -63 252 -121 113 -81
227 -217 275 -330 l21 -49 -30 -30 -30 -30 -62 32 c-82 42 -127 42 -230 -2
-12 -5 -18 -1 -23 17 -3 14 -8 32 -11 39 -8 21 61 39 180 48 l100 7 -84 2
c-49 0 -111 -6 -148 -15 -61 -15 -64 -15 -89 5 -15 12 -33 21 -40 21 -8 0 -14
4 -14 9 0 15 96 58 190 85 94 28 84 35 -14 10 -33 -8 -99 -35 -145 -60 -46
-24 -90 -44 -98 -44 -31 0 -73 -36 -94 -79 -12 -26 -30 -63 -40 -83 -25 -48
-24 -59 2 -28 14 18 12 10 -7 -25 -30 -55 -41 -69 -31 -42 19 49 19 53 1 32
-10 -12 -15 -14 -12 -5 3 8 13 42 23 75 22 77 44 119 95 179 54 65 132 124
211 161 76 35 74 34 67 40 -3 3 -41 -13 -84 -34 -97 -49 -190 -131 -254 -225
-26 -39 -60 -82 -75 -96 l-28 -25 8 40 c22 124 123 283 231 362 72 54 88 80
19 33 -68 -47 -143 -127 -185 -200 -37 -63 -80 -176 -80 -211 0 -9 -8 -27 -19
-40 l-18 -23 -7 36 c-9 47 11 178 38 253 29 81 64 140 120 202 25 28 46 54 46
59 0 17 -64 -55 -111 -124 -61 -92 -96 -201 -105 -327 -12 -172 -58 -96 -57
95 1 120 29 229 83 314 17 26 29 50 26 53 -2 2 -16 -15 -30 -39 -86 -148 -114
-297 -82 -448 8 -36 13 -66 12 -67 0 0 -10 -3 -20 -5 -16 -2 -24 11 -48 77
-51 138 -49 280 7 450 4 14 2 12 -9 -5 -8 -14 -23 -58 -32 -99 -24 -108 -16
-241 23 -353 27 -77 28 -88 14 -93 -20 -8 -43 21 -87 108 -50 99 -67 182 -62
305 3 69 2 98 -5 87 -5 -10 -7 -70 -5 -139 6 -137 27 -211 93 -317 20 -33 35
-63 32 -65 -14 -14 -79 30 -115 78 -63 82 -102 177 -121 286 -9 53 -17 87 -19
74 -6 -39 28 -182 59 -250 16 -36 48 -90 71 -119 22 -29 39 -55 37 -57 -2 -3
-16 -7 -31 -11 -22 -6 -34 0 -71 35 -58 53 -119 148 -148 230 -28 82 -45 102
-23 30 23 -79 80 -184 132 -241 44 -49 44 -49 17 -49 -14 0 -36 -5 -47 -11
-32 -17 -91 45 -195 207 -8 13 -8 8 1 -15 17 -44 91 -145 133 -181 l33 -29
-23 -35 c-12 -19 -28 -35 -34 -36 -7 0 -52 38 -100 85 l-88 84 0 84 c0 79 2
88 35 138 46 72 141 172 215 224 100 71 188 109 326 140 99 23 282 14 392 -19z
m1114 -372 c11 -17 12 -27 3 -43 -36 -68 -121 -37 -89 32 18 40 63 45 86 11z
m-2237 -12 c19 -9 40 -28 47 -42 51 -101 -47 -352 -154 -396 -28 -12 -38 -12
-65 -1 -58 25 -73 51 -73 127 0 77 5 76 -93 26 -42 -21 -54 -35 -84 -93 -103
-196 -132 -380 -75 -464 76 -111 199 -95 338 44 70 69 158 200 190 282 30 74
71 105 139 105 71 0 110 -43 110 -122 0 -61 15 -62 74 -8 31 29 50 58 66 103
26 73 46 99 74 95 17 -2 21 -10 21 -38 l0 -35 38 37 c24 25 46 38 64 38 30 0
63 -25 63 -49 0 -9 12 -1 31 22 75 91 159 87 159 -8 0 -22 -18 -94 -40 -159
-47 -138 -50 -158 -19 -130 39 35 206 278 236 344 36 79 53 96 82 80 28 -14
26 -31 -10 -108 -49 -104 -86 -272 -60 -272 33 0 125 117 188 241 58 111 70
126 129 155 65 32 112 27 144 -13 26 -33 27 -89 1 -102 -22 -12 -48 4 -53 34
-2 11 -10 21 -19 23 -23 4 -83 -40 -93 -71 -9 -25 -5 -32 51 -90 33 -34 62
-68 64 -74 10 -34 189 173 189 219 0 24 50 93 86 117 50 34 121 39 156 12 32
-25 47 -83 28 -106 -21 -25 -51 -18 -63 15 -8 22 -18 30 -35 30 -28 0 -95 -62
-90 -84 2 -7 34 -46 71 -86 l68 -71 63 63 c48 50 76 91 121 181 32 65 64 122
71 128 21 17 54 1 54 -26 0 -12 -13 -51 -30 -86 -29 -62 -70 -203 -70 -241 0
-78 143 86 213 244 33 75 75 108 136 108 34 0 56 -6 74 -21 31 -23 51 -88 42
-131 l-7 -29 39 20 c22 11 52 36 67 56 15 19 39 43 52 52 24 15 26 15 46 -4
20 -20 20 -20 0 -59 -11 -22 -38 -54 -61 -72 -39 -32 -135 -82 -156 -82 -6 0
-39 -31 -72 -68 -88 -99 -137 -113 -196 -58 l-26 24 -36 -34 c-45 -42 -105
-62 -141 -46 -14 7 -33 29 -42 51 l-17 38 -49 -42 c-102 -90 -229 -126 -277
-78 -16 16 -20 28 -15 48 7 26 8 27 60 21 46 -6 54 -5 61 11 5 14 -5 28 -41
60 l-48 43 -27 -43 c-64 -104 -228 -217 -313 -217 -50 0 -86 23 -86 54 0 34
16 43 70 38 45 -4 50 -3 50 16 0 12 -18 36 -46 58 -37 31 -47 35 -55 23 -5 -8
-23 -36 -39 -64 -59 -98 -136 -165 -192 -165 -36 0 -88 48 -88 81 0 17 -12 6
-51 -45 -78 -101 -144 -131 -189 -86 -31 31 -26 106 14 225 19 55 33 101 31
103 -7 7 -68 -95 -125 -211 -56 -114 -68 -132 -89 -132 -48 0 -48 24 -2 170
24 75 41 138 38 141 -8 9 -50 -59 -125 -202 -59 -112 -72 -129 -95 -132 -36
-4 -49 29 -36 88 5 23 8 44 6 46 -1 2 -28 -6 -59 -17 -43 -16 -63 -31 -88 -65
-69 -96 -150 -126 -204 -75 l-26 24 -78 -75 c-131 -125 -256 -167 -356 -118
-126 60 -172 203 -126 391 12 51 37 127 54 169 l32 76 -87 -4 c-70 -4 -102 0
-161 18 -125 38 -208 108 -208 176 0 32 25 64 50 64 28 0 53 -36 46 -64 -5
-22 0 -29 31 -50 89 -59 213 -79 327 -52 51 12 74 23 90 44 83 107 180 183
275 213 71 23 98 23 141 1z m1198 -145 c4 -34 -22 -67 -53 -67 -41 0 -57 39
-34 81 8 16 19 19 47 17 32 -3 37 -7 40 -31z m-899 -192 c23 -15 41 -34 41
-41 0 -20 -5 -18 -37 15 -33 32 -122 57 -168 45 -21 -5 -26 -4 -22 7 3 8 13
38 22 66 l16 53 54 -58 c30 -32 72 -71 94 -87z m2051 -312 c0 -38 -36 -184
-64 -263 -112 -309 -311 -563 -581 -742 -266 -176 -574 -261 -885 -244 -514
27 -963 305 -1225 759 -20 36 -23 47 -12 47 8 0 33 -31 56 -70 158 -266 411
-485 698 -604 289 -120 652 -139 958 -51 239 70 443 191 625 374 214 215 353
483 404 784 8 43 26 50 26 10z m-670 -57 c0 -17 -81 -169 -112 -209 -116 -152
-260 -255 -438 -313 -78 -25 -98 -28 -240 -28 -148 0 -159 2 -250 32 -166 56
-304 152 -407 282 l-43 54 32 33 31 32 37 -30 c53 -43 104 -48 152 -15 34 23
40 24 69 12 l31 -13 -53 -22 c-28 -13 -78 -28 -110 -34 -33 -6 -59 -14 -59
-18 0 -12 131 21 200 51 38 17 73 30 78 30 5 0 21 9 35 20 22 17 29 18 51 9
14 -7 26 -18 26 -25 0 -24 -103 -105 -186 -146 -98 -48 -106 -65 -9 -20 64 31
162 99 199 141 14 15 31 21 63 21 l44 0 -27 -50 c-25 -46 -119 -144 -189 -198
-19 -15 -22 -19 -8 -12 53 25 148 117 194 187 29 45 65 86 91 103 23 16 44 28
45 26 1 -1 -5 -29 -13 -61 -21 -81 -76 -183 -135 -250 -67 -77 -61 -84 7 -10
64 69 126 189 145 280 7 33 15 64 19 68 4 4 19 3 35 -3 27 -10 27 -11 21 -73
-12 -108 -29 -169 -73 -256 -51 -99 -51 -121 0 -29 45 81 74 177 83 273 l7 75
33 0 c31 0 33 -2 40 -46 10 -69 -2 -190 -26 -267 -28 -90 -19 -98 11 -10 20
56 24 91 25 196 l2 129 28 14 c35 18 38 13 60 -85 12 -53 15 -102 12 -175 -4
-69 -2 -93 4 -76 15 39 3 257 -16 309 -16 43 -16 46 4 65 25 26 46 15 77 -40
20 -35 31 -74 63 -224 8 -41 9 -39 4 20 -5 56 -31 150 -58 212 -7 15 -1 17 47
17 l55 -1 26 -58 c14 -32 29 -72 32 -89 4 -17 11 -34 16 -37 13 -8 0 41 -32
119 -19 46 -25 69 -17 71 7 2 29 9 50 16 21 6 40 10 42 8 2 -1 15 -23 29 -48
32 -55 34 -41 4 19 -15 28 -19 45 -12 48 6 2 26 15 44 28 l33 24 38 -22 c21
-12 39 -26 39 -31z m50 -2 c0 -22 -89 -188 -131 -245 -109 -148 -301 -279
-474 -324 -146 -38 -352 -36 -490 6 -158 47 -346 175 -444 303 -36 46 -42 59
-30 67 9 6 18 3 26 -9 92 -130 256 -258 399 -311 134 -51 335 -65 481 -35 231
47 429 189 556 397 21 34 46 83 55 110 11 32 22 47 34 47 10 0 18 -3 18 -6z"/>
<path d="M1455 2826 c-27 -13 -59 -31 -70 -40 -20 -17 -19 -17 3 -6 31 15 68
5 82 -21 9 -16 6 -35 -10 -85 -24 -71 -21 -114 8 -114 48 0 115 130 116 225
l1 60 -40 3 c-26 1 -57 -6 -90 -22z"/>
<path d="M4028 2734 c-50 -26 -45 -85 8 -98 33 -9 44 5 44 55 0 48 -17 62 -52
43z"/>
<path d="M3936 2558 c-10 -37 -7 -78 6 -78 15 0 78 48 78 60 0 10 -52 40 -68
40 -5 0 -12 -10 -16 -22z"/>
<path d="M1737 2412 c-10 -10 -17 -28 -17 -40 0 -25 43 -57 65 -49 18 8 29 49
21 82 -8 30 -45 34 -69 7z"/>
<path d="M1659 2241 c-22 -75 6 -92 60 -37 l33 34 -40 21 -41 21 -12 -39z"/>
</g>
</svg>
